<?xml version="1.0" encoding="utf-8"?>
<!-- Generator: Adobe Illustrator 24.2.3, SVG Export Plug-In . SVG Version: 6.00 Build 0)  -->
<svg version="1.1" id="Layer_1" xmlns="http://www.w3.org/2000/svg" xmlns:xlink="http://www.w3.org/1999/xlink" x="0px" y="0px"
	 viewBox="0 0 266 65" style="enable-background:new 0 0 266 65;" xml:space="preserve">
<style type="text/css">
	.st0{fill:#2CA99C;}
	.st1{fill:#159196;}
</style>
<g>
	<g>
		<g>
			<path class="st0" d="M11.1,31.2c1.9,0.9,5,2,8.3,2c2.7,0,4.1-0.9,4.1-2.3c0-1.2-1.3-2.1-4.8-3c-4.9-1.4-9-3.9-9-8.9
				c0-5.2,4.7-9.1,12.2-9.1c3.9,0,6.6,0.7,8.8,1.6l-1.8,6.3c-1.4-0.6-3.8-1.5-7.1-1.5c-2.4,0-3.8,0.8-3.8,2c0,1.5,1.8,2.1,5.6,3.2
				c5.6,1.8,8.2,4.5,8.2,8.8c0,4.8-3.8,9.3-13,9.3c-3.8,0-7.5-1-9.4-2L11.1,31.2z"/>
			<path class="st0" d="M44.3,12.3c0,2.1-1.5,3.7-4.2,3.7c-2.6,0-4.1-1.7-4.1-3.7c0-2.1,1.5-3.7,4.1-3.7
				C42.8,8.6,44.3,10.2,44.3,12.3z M36.1,39.2v-21h8.1v21H36.1z"/>
			<path class="st0" d="M49.3,25.5c0-3-0.1-5.4-0.2-7.3h6.7l0.3,2.7h0.2c0.6-0.9,2.5-3.2,6.6-3.2c2.7,0,5,1.3,6,3.5H69
				c0.9-1.2,2-2.1,3.1-2.7c1.2-0.6,2.5-0.9,4-0.9c4.7,0,7.7,3.2,7.7,9.4v12.1H76V28.3c0-2.7-0.9-4.2-2.8-4.2c-1.4,0-2.2,0.9-2.6,1.9
				c-0.2,0.5-0.2,1.2-0.2,1.6v11.6h-7.8V28.3c0-2.7-0.9-4.2-2.8-4.2c-1.6,0-2.3,1.2-2.6,1.9c-0.2,0.6-0.2,1.1-0.2,1.6v11.7h-7.8
				V25.5z"/>
			<path class="st0" d="M88.9,25.5c0-3-0.1-5.4-0.2-7.3h7l0.3,2.8h0.1c1.8-2.3,4.4-3.3,7.6-3.3c4.2,0,9.3,3.3,9.3,10.7
				c0,7.8-5.6,11.4-10.4,11.4c-2.6,0-4.7-0.9-5.6-2.1H97v10.1h-8.1V25.5z M97,29.5c0,0.4,0,0.7,0,1.1c0.3,1.6,1.7,3.1,3.6,3.1
				c2.5,0,4.2-1.8,4.2-4.9c0-2.7-1.3-5-4.1-5c-1.8,0-3.4,1.5-3.7,3.3c0,0.3,0,0.6,0,0.9V29.5z"/>
			<path class="st0" d="M117,8.6h8.1v30.6H117V8.6z"/>
			<path class="st0" d="M138.4,12.3c0,2.1-1.5,3.7-4.2,3.7c-2.6,0-4.1-1.7-4.1-3.7c0-2.1,1.5-3.7,4.1-3.7
				C136.9,8.6,138.4,10.2,138.4,12.3z M130.2,39.2v-21h8.1v21H130.2z"/>
			<path class="st0" d="M167.6,38.3c-1.2,0.6-4.3,1.4-8.2,1.4c-11.7,0-16.9-6.7-16.9-14.4c0-10,7.9-15.4,17.3-15.4
				c3.7,0,6.8,0.7,8.2,1.5l-1.7,6.2c-1.5-0.6-3.6-1.2-6.3-1.2c-4.8,0-9.1,2.6-9.1,8.3c0,5,3.4,8.4,9.3,8.4c2.2,0,4.7-0.4,6-1
				L167.6,38.3z"/>
			<path class="st0" d="M172,8.6h8.1v30.6H172V8.6z"/>
			<path class="st0" d="M191.6,31.4c0.3,1.6,3,2.4,5.8,2.4c2.1,0,4.1-0.2,6.3-0.9l1,5.3c-2.9,1.2-5.7,1.5-8.4,1.5
				c-7.9,0-12.3-4.2-12.3-10.9c0-4.1,2.9-11.2,11.5-11.2c7.5,0,10.4,5.6,10.4,10.9c0,1.1-0.2,2.3-0.3,2.8H191.6z M198.4,25.9
				c0-0.9-0.6-3.2-3.3-3.2c-2.5,0-3.5,2-3.6,3.2H198.4z"/>
			<path class="st0" d="M222.4,39.2l-0.4-1.8h-0.2c-1.5,1.7-3.8,2.3-6.2,2.3c-4.6,0-7.4-3.2-7.4-6.6c0-5.6,5-8.2,13-8.2v-0.1
				c0-0.8-0.5-1.7-3.7-1.7c-2.4,0-5,0.9-6.4,1.7l-1.4-5c1.4-0.7,4.5-2,9.2-2c7.2,0,10.3,3.6,10.3,9.3V34c0,2.2,0.1,4.3,0.3,5.2
				H222.4z M221.5,29.7c-3.5,0-5.3,0.9-5.3,2.6c0,1.2,0.8,1.9,2.3,1.9c1.2,0,2.5-0.9,2.9-2.2c0.1-0.3,0.1-0.8,0.1-1.2V29.7z"/>
			<path class="st0" d="M234.5,25.5c0-3-0.1-5.4-0.2-7.3h7l0.3,2.8h0.2c0.6-0.9,2.7-3.3,6.7-3.3c5,0,8.2,3.2,8.2,9.4v12.1h-8.1V28.3
				c0-2.7-1-4.2-3-4.2c-1.8,0-2.5,1.2-2.8,2.1c-0.2,0.4-0.2,0.9-0.2,1.4v11.7h-8.1V25.5z"/>
		</g>
	</g>
	<g>
		<g>
			<path class="st1" d="M71.8,59.1v-2.9l-2.4-3.9h1.1l1.1,1.9c0.3,0.5,0.5,0.9,0.7,1.3h0c0.2-0.4,0.5-0.8,0.7-1.3l1.1-1.9h1
				l-2.5,3.9v2.9H71.8z"/>
			<path class="st1" d="M82.8,55.6c0,2.2-1.6,3.6-3.5,3.6c-2,0-3.4-1.4-3.4-3.4c0-2.1,1.5-3.6,3.5-3.6
				C81.4,52.2,82.8,53.7,82.8,55.6z M76.8,55.8c0,1.5,1,2.7,2.5,2.7c1.6,0,2.5-1.2,2.5-2.8c0-1.4-0.9-2.7-2.5-2.7
				C77.7,52.9,76.8,54.2,76.8,55.8z"/>
			<path class="st1" d="M85.2,52.3v3.8c0,1.6,0.8,2.3,1.8,2.3c1.1,0,1.9-0.7,1.9-2.3v-3.8h0.9v3.8c0,2.2-1.2,3.1-2.8,3.1
				c-1.5,0-2.7-0.8-2.7-3.1v-3.8H85.2z"/>
			<path class="st1" d="M91.7,52.4c0.5-0.1,1.2-0.2,1.9-0.2c1,0,1.7,0.2,2.1,0.6c0.3,0.3,0.5,0.7,0.5,1.3c0,0.9-0.6,1.5-1.3,1.7v0
				c0.5,0.2,0.8,0.7,1,1.3c0.2,1,0.4,1.6,0.6,1.9h-0.9c-0.1-0.2-0.3-0.7-0.5-1.6c-0.2-0.9-0.6-1.3-1.4-1.3h-1v2.9h-0.9V52.4z
				 M92.6,55.5h1.1c1,0,1.6-0.5,1.6-1.3c0-0.9-0.7-1.3-1.7-1.3c-0.5,0-0.9,0-1,0.1V55.5z"/>
			<path class="st1" d="M101.4,52.3v2.8h3.7v-2.8h0.9v6.7h-0.9v-3.2h-3.7v3.2h-0.9v-6.7H101.4z"/>
			<path class="st1" d="M114.4,55.6c0,2.2-1.6,3.6-3.5,3.6c-2,0-3.4-1.4-3.4-3.4c0-2.1,1.5-3.6,3.5-3.6
				C113.1,52.2,114.4,53.7,114.4,55.6z M108.4,55.8c0,1.5,1,2.7,2.5,2.7c1.6,0,2.5-1.2,2.5-2.8c0-1.4-0.9-2.7-2.5-2.7
				C109.3,52.9,108.4,54.2,108.4,55.8z"/>
			<path class="st1" d="M116.8,52.3v3.8c0,1.6,0.8,2.3,1.8,2.3c1.1,0,1.9-0.7,1.9-2.3v-3.8h0.9v3.8c0,2.2-1.2,3.1-2.8,3.1
				c-1.5,0-2.7-0.8-2.7-3.1v-3.8H116.8z"/>
			<path class="st1" d="M123.2,58c0.4,0.3,1.1,0.5,1.8,0.5c1,0,1.5-0.5,1.5-1.1c0-0.6-0.4-1-1.4-1.3c-1.3-0.4-2-1-2-1.9
				c0-1.1,0.9-1.8,2.3-1.8c0.8,0,1.3,0.2,1.7,0.4l-0.3,0.7c-0.2-0.1-0.7-0.4-1.4-0.4c-1,0-1.4,0.6-1.4,1c0,0.6,0.4,0.9,1.5,1.3
				c1.3,0.4,1.9,0.9,1.9,2c0,1-0.7,2-2.5,2c-0.7,0-1.5-0.2-1.9-0.5L123.2,58z"/>
			<path class="st1" d="M132.9,55.9h-2.9v2.4h3.3v0.7H129v-6.7h4v0.7h-3.1v2.1h2.9V55.9z"/>
			<path class="st1" d="M135.6,52.3v2.8h3.7v-2.8h0.9v6.7h-0.9v-3.2h-3.7v3.2h-0.9v-6.7H135.6z"/>
			<path class="st1" d="M148.7,55.6c0,2.2-1.6,3.6-3.5,3.6c-2,0-3.4-1.4-3.4-3.4c0-2.1,1.5-3.6,3.5-3.6
				C147.3,52.2,148.7,53.7,148.7,55.6z M142.7,55.8c0,1.5,1,2.7,2.5,2.7c1.6,0,2.5-1.2,2.5-2.8c0-1.4-0.9-2.7-2.5-2.7
				C143.6,52.9,142.7,54.2,142.7,55.8z"/>
			<path class="st1" d="M150.2,52.3h0.9v6h3.2v0.8h-4.1V52.3z"/>
			<path class="st1" d="M155.6,52.4c0.6-0.1,1.3-0.2,2.1-0.2c1.4,0,2.5,0.3,3.1,1c0.6,0.6,1,1.3,1,2.3c0,1-0.3,1.9-1,2.5
				c-0.7,0.7-1.9,1.1-3.4,1.1c-0.7,0-1.3,0-1.8-0.1V52.4z M156.6,58.4c0.3,0,0.7,0,1.1,0c2.2,0,3.3-1.2,3.3-2.8c0-1.6-1-2.6-3.1-2.6
				c-0.6,0-1,0.1-1.2,0.1V58.4z"/>
			<path class="st1" d="M166,59.1v-6.7h1l2.5,3.5c0.6,0.8,1,1.5,1.3,2.1l0,0c-0.1-0.8-0.1-1.7-0.1-2.7v-3h0.9v6.7h-0.9l-2.4-3.5
				c-0.5-0.8-1-1.6-1.4-2.2l0,0c0,0.8,0.1,1.6,0.1,2.6v3.1H166z"/>
			<path class="st1" d="M177.3,55.9h-2.9v2.4h3.3v0.7h-4.2v-6.7h4v0.7h-3.1v2.1h2.9V55.9z"/>
			<path class="st1" d="M183,55.9h-2.9v2.4h3.3v0.7h-4.2v-6.7h4v0.7h-3.1v2.1h2.9V55.9z"/>
			<path class="st1" d="M184.9,52.4c0.6-0.1,1.3-0.2,2.1-0.2c1.4,0,2.5,0.3,3.1,1c0.6,0.6,1,1.3,1,2.3c0,1-0.3,1.9-1,2.5
				c-0.7,0.7-1.9,1.1-3.4,1.1c-0.7,0-1.3,0-1.8-0.1V52.4z M185.8,58.4c0.3,0,0.7,0,1.1,0c2.2,0,3.3-1.2,3.3-2.8c0-1.6-1-2.6-3.1-2.6
				c-0.6,0-1,0.1-1.2,0.1V58.4z"/>
			<path class="st1" d="M192.5,58c0.4,0.3,1.1,0.5,1.8,0.5c1,0,1.5-0.5,1.5-1.1c0-0.6-0.4-1-1.4-1.3c-1.3-0.4-2-1-2-1.9
				c0-1.1,0.9-1.8,2.3-1.8c0.8,0,1.3,0.2,1.7,0.4l-0.3,0.7c-0.2-0.1-0.7-0.4-1.4-0.4c-1,0-1.4,0.6-1.4,1c0,0.6,0.4,0.9,1.5,1.3
				c1.3,0.4,1.9,0.9,1.9,2c0,1-0.7,2-2.5,2c-0.7,0-1.5-0.2-1.9-0.5L192.5,58z"/>
		</g>
	</g>
</g>
</svg>
